<svg height="512pt" viewBox="0 0 512 512" width="512pt" xmlns="http://www.w3.org/2000/svg"><path d="m14.882812 207.035156c-3.640624 15.851563-4.84375 32.328125-4.84375 48.964844 0 65.699219 25.585938 127.464844 72.039063 173.921875 46.457031 46.453125 108.222656 72.039063 173.921875 72.039063s127.464844-25.585938 173.921875-72.039063c46.453125-46.457031 72.039063-108.222656 72.039063-173.921875s-25.585938-127.464844-72.039063-173.921875c-46.457031-46.453125-108.222656-72.039063-173.921875-72.039063s-127.464844 25.585938-173.921875 72.039063c-15.214844 15.21875-28.699219 31.792969-38.765625 50.183594-4.816406 8.789062-13.730469 26.800781-17.292969 36.171875-3.570312 9.386718-8.886719 28.8125-11.136719 38.601562zm0 0" fill="#6289fa"/><path d="m256 48.476562c-114.066406 0-206.535156 92.472657-206.535156 206.539063s92.46875 206.535156 206.535156 206.535156 206.535156-92.46875 206.535156-206.535156-92.46875-206.539063-206.535156-206.539063zm65.589844 69.667969-35.398438 154.214844c-5.65625 15.320313-22.660156 23.152344-37.980468 17.496094-15.320313-5.65625-23.152344-22.660157-17.496094-37.980469l73.308594-140.214844c5.128906-9.8125 20.042968-4.304687 17.566406 6.484375zm0 0" fill="#c8f5ff"/><path d="m304.023438 111.660156-73.308594 140.214844c-5.65625 15.320312 2.175781 32.324219 17.496094 37.980469 15.320312 5.65625 32.324218-2.179688 37.980468-17.496094l35.398438-154.214844c2.476562-10.789062-12.4375-16.296875-17.566406-6.484375zm0 0" fill="#ff5d5d"/><path d="m255.015625 129.722656c5.546875 0 10.039063-4.496094 10.039063-10.039062v-36.789063c0-5.542969-4.492188-10.039062-10.039063-10.039062-5.542969 0-10.039063 4.496093-10.039063 10.039062v36.789063c0 5.542968 4.496094 10.039062 10.039063 10.039062zm0 0"/><path d="m382.109375 255.996094c0 5.542968 4.492187 10.039062 10.039063 10.039062h36.785156c5.546875 0 10.039062-4.496094 10.039062-10.039062 0-5.542969-4.492187-10.039063-10.039062-10.039063h-36.785156c-5.546876 0-10.039063 4.496094-10.039063 10.039063zm0 0"/><path d="m129.890625 255.996094c0-5.542969-4.492187-10.039063-10.039063-10.039063h-36.785156c-5.546875 0-10.039062 4.496094-10.039062 10.039063 0 5.542968 4.492187 10.039062 10.039062 10.039062h36.785156c5.546876 0 10.039063-4.496094 10.039063-10.039062zm0 0"/><path d="m255.015625 380.863281c-5.542969 0-10.039063 4.496094-10.039063 10.039063v36.789062c0 5.546875 4.496094 10.039063 10.039063 10.039063 5.546875 0 10.039063-4.492188 10.039063-10.039063v-36.789062c0-5.542969-4.492188-10.039063-10.039063-10.039063zm0 0"/><path d="m351.195312 168.746094c2.570313 0 5.140626-.980469 7.097657-2.9375l26.015625-26.015625c3.917968-3.917969 3.917968-10.277344 0-14.199219-3.921875-3.917969-10.277344-3.917969-14.199219 0l-26.011719 26.015625c-3.921875 3.917969-3.921875 10.277344 0 14.199219 1.960938 1.957031 4.527344 2.9375 7.097656 2.9375zm0 0"/><path d="m358.875 344.960938c-3.921875-3.917969-10.277344-3.917969-14.199219 0-3.921875 3.921874-3.921875 10.277343 0 14.199218l26.011719 26.011719c1.960938 1.960937 4.53125 2.941406 7.097656 2.941406 2.570313 0 5.140625-.980469 7.101563-2.941406 3.917969-3.917969 3.917969-10.277344 0-14.199219zm0 0"/><path d="m152.132812 166.617188c1.960938 1.960937 4.53125 2.941406 7.101563 2.941406 2.566406 0 5.136719-.980469 7.097656-2.941406 3.921875-3.917969 3.921875-10.277344 0-14.195313l-26.011719-26.015625c-3.921874-3.917969-10.277343-3.917969-14.199218 0-3.921875 3.921875-3.921875 10.277344 0 14.199219zm0 0"/><path d="m152.316406 343.390625-26.015625 26.011719c-3.917969 3.921875-3.917969 10.277344 0 14.199218 1.960938 1.960938 4.53125 2.941407 7.101563 2.941407 2.566406 0 5.136718-.980469 7.097656-2.941407l26.011719-26.011718c3.921875-3.921875 3.921875-10.277344 0-14.199219-3.917969-3.917969-10.277344-3.917969-14.195313 0zm0 0"/><path d="m437.019531 74.980469c-48.351562-48.351563-112.640625-74.980469-181.019531-74.980469s-132.667969 26.628906-181.019531 74.980469c-15.699219 15.699219-29.273438 33.269531-40.339844 52.21875-2.792969 4.789062-1.179687 10.933593 3.609375 13.730469 4.785156 2.796874 10.933594 1.183593 13.730469-3.605469 10.199219-17.464844 22.714843-33.660157 37.195312-48.144531 44.5625-44.5625 103.808594-69.101563 166.824219-69.101563s122.261719 24.539063 166.820312 69.101563c44.5625 44.558593 69.101563 103.804687 69.101563 166.820312s-24.539063 122.261719-69.101563 166.820312c-44.558593 44.5625-103.804687 69.101563-166.820312 69.101563s-122.261719-24.539063-166.820312-69.101563c-44.5625-44.558593-69.101563-103.804687-69.101563-166.820312 0-15.832031 1.5625-31.636719 4.648437-46.988281 1.09375-5.433594-2.429687-10.726563-7.863281-11.816407-5.4375-1.09375-10.730469 2.425782-11.820312 7.863282-3.347657 16.644531-5.042969 33.785156-5.042969 50.941406 0 68.378906 26.628906 132.667969 74.980469 181.019531 48.351562 48.351563 112.640625 74.980469 181.019531 74.980469s132.667969-26.628906 181.019531-74.980469c48.351563-48.351562 74.980469-112.640625 74.980469-181.019531s-26.628906-132.667969-74.980469-181.019531zm0 0"/><path d="m256 471.589844c3.617188 0 7.21875-.089844 10.804688-.261719 3.585937-.175781 7.15625-.4375 10.707031-.785156 1.777343-.175781 3.546875-.371094 5.3125-.585938 47.691406-5.855469 91.804687-27.285156 126.316406-61.800781 1.28125-1.277344 2.539063-2.570312 3.78125-3.875 34.785156-36.519531 55.398437-83.125 59.0625-133.097656.394531-5.351563.589844-10.746094.589844-16.167969 0-5.425781-.195313-10.816406-.589844-16.171875-3.664063-49.972656-24.277344-96.574219-59.0625-133.097656-1.242187-1.304688-2.5-2.597656-3.78125-3.875-34.511719-34.515625-78.625-55.945313-126.316406-61.796875-1.765625-.21875-3.535157-.414063-5.3125-.589844-3.550781-.347656-7.121094-.609375-10.707031-.78125-3.585938-.175781-7.1875-.265625-10.804688-.265625-57.851562 0-112.238281 22.527344-153.140625 63.433594-40.90625 40.90625-63.433594 95.292968-63.433594 153.144531 0 57.847656 22.527344 112.234375 63.433594 153.140625 40.902344 40.90625 95.289063 63.433594 153.140625 63.433594zm0-413.070313c108.347656 0 196.496094 88.144531 196.496094 196.496094 0 108.347656-88.148438 196.496094-196.496094 196.496094s-196.496094-88.148438-196.496094-196.496094 88.148438-196.496094 196.496094-196.496094zm0 0"/><path d="m222.476562 278.691406c.277344.597656.570313 1.191406.871094 1.773438 4.550782 8.734375 12.082032 15.371094 21.386719 18.808594 4.507813 1.664062 9.128906 2.453124 13.675781 2.453124 10.96875 0 21.503906-4.597656 28.976563-12.570312l123.398437 32.695312c.859375.230469 1.726563.339844 2.578125.339844 4.441407 0 8.503907-2.976562 9.695313-7.472656 1.421875-5.359375-1.773438-10.855469-7.132813-12.273438l-119.097656-31.558593 34.546875-150.496094c.277344-1.210937.441406-2.417969.496094-3.609375.347656-7.753906-3.902344-14.914062-11.035156-18.308594-.550782-.261718-1.117188-.5-1.699219-.714844-9.3125-3.441406-19.410157.449219-24.007813 9.25l-73.3125 140.214844c-.199218.378906-.371094.773438-.519531 1.171875-3.207031 8.6875-3.285156 18.007813-.289063 26.640625.425782 1.234375.917969 2.453125 1.46875 3.65625zm88.289063-158.257812-34.203125 148.988281c-3.921875 9.746094-14.953125 14.675781-24.875 11.015625-4.894531-1.808594-8.789062-5.410156-10.972656-10.148438-.261719-.570312-.496094-1.148437-.703125-1.734374-.820313-2.339844-1.183594-4.785157-1.082031-7.222657.074218-1.828125.410156-3.65625 1.007812-5.433593zm0 0"/><path d="m16.746094 172.261719c1.59375 3.824219 5.449218 6.320312 9.59375 6.191406 4.132812-.128906 7.847656-2.890625 9.179687-6.800781 1.347657-3.964844.019531-8.5-3.269531-11.09375-3.292969-2.601563-7.964844-2.867188-11.535156-.660156-4.117188 2.546874-5.832032 7.894531-3.96875 12.363281zm0 0"/></svg>