<?xml version="1.0" encoding="iso-8859-1"?>
<!-- Generator: Adobe Illustrator 19.0.0, SVG Export Plug-In . SVG Version: 6.00 Build 0)  -->
<svg version="1.1" id="Capa_1" xmlns="http://www.w3.org/2000/svg" xmlns:xlink="http://www.w3.org/1999/xlink" x="0px" y="0px"
	 viewBox="0 0 512.001 512.001" style="enable-background:new 0 0 512.001 512.001;" xml:space="preserve">
<path style="fill:#F9F6ED;" d="M388.252,85.792c-65.749,0-250.244,0-316.936,0c-13.18,0-23.864,10.685-23.864,23.864v342.685
	c0,28.294,22.626,52.243,51.502,52.144v0.012h313.131c0-136.576,0-252.846,0-394.87C412.084,96.462,401.413,85.792,388.252,85.792z"
	/>
<path style="fill:#EFECE4;" d="M77.453,452.34V109.655c0-13.18,10.685-23.864,23.864-23.864c-11.528,0-21.682,0-30.001,0
	c-13.18,0-23.864,10.685-23.864,23.864V452.34c0,28.294,22.626,52.243,51.502,52.144v0.012h30.001v-0.012
	C100.08,504.582,77.453,480.634,77.453,452.34z"/>
<path style="fill:#FC7777;" d="M252.377,70.173l-6.215-6.215c-5.33-5.33-14.053-5.33-19.383,0l-6.207,6.207l-40.278-40.278
	l-37.542,37.542l40.278,40.278l0,0l-6.207,6.207c-5.33,5.33-5.33,14.052,0,19.382l5.778,5.778c2.162,2.161,5.666,2.161,7.827,0
	l5.777-5.777c23.528-23.528,22.426-22.426,56.172-56.172C254.297,75.206,254.297,72.093,252.377,70.173z"/>
<path style="fill:#F75C5C;" d="M201.206,125.348l-6.372-6.372c-5.878-5.878-5.878-15.497,0-21.375l1.107-1.107
	c3.169-3.169,3.169-8.307,0-11.478l-35.387-35.387l-17.801,17.802l40.278,40.278l-6.207,6.207c-5.33,5.33-5.33,14.052,0,19.382
	l5.778,5.778c2.161,2.161,5.665,2.161,7.827,0l5.777-5.777c2.511-2.511,4.728-4.728,6.75-6.75
	C202.326,126.254,201.727,125.868,201.206,125.348z"/>
<path style="fill:#F94A46;" d="M181.295,30.887l-37.542,37.542c-5.33,5.33-14.053,5.33-19.383,0l0,0
	c-5.33-5.33-5.33-14.053,0-19.383l37.542-37.542c5.33-5.33,14.053-5.33,19.383,0l0,0C186.625,16.834,186.625,25.557,181.295,30.887z
	"/>
<path style="fill:#EA3B3B;" d="M146.461,46.338c-4.134-4.134-5.477-10.034-4.054-15.328L124.37,49.047
	c-5.33,5.33-5.33,14.053,0,19.383c5.33,5.33,14.053,5.33,19.383,0l18.037-18.037C156.495,51.815,150.595,50.472,146.461,46.338z"/>
<path style="fill:#EAE4D6;" d="M439.467,438.76c-3.984,2.627-9.151,2.627-13.136,0c-20.656-13.162-20.747-14.737-24.653-14.846
	c-1.418,0.039-2.829,0.454-4.065,1.268c-20.012,12.718-20.926,14.941-25.887,15.472c-2.784,0.408-5.684-0.192-8.129-1.805
	l-20.73-13.668c-2.492-1.643-5.574-1.684-8.129,0c-19.392,11.905-21.405,16.24-28.353,15.517c-2.6-0.184-4.587-1.14-6.767-2.576
	c-19.682-12.528-19.787-14.08-23.651-14.206c-3.881,0.128-3.937,1.661-24.614,14.842c-3.65,2.407-9.11,2.935-13.426,0.09
	c-20.785-13.246-20.884-14.829-24.795-14.936c-1.418,0.039-2.829,0.454-4.064,1.268l-20.723,13.667
	c-4.466,2.945-9.73,2.35-14.398-0.725c-19.38-12.33-20.159-14.369-23.861-14.194v29.253c0,28.34-22.974,51.315-51.316,51.315
	h313.317c28.34,0,51.316-22.975,51.316-51.315v-29.217C460.175,424.359,460.532,425.201,439.467,438.76z"/>
<path style="fill:#E2D9C7;" d="M184.085,453.185V440.58c-3.356,0.619-6.893-0.315-10.141-2.455
	c-19.38-12.33-20.159-14.369-23.861-14.194v29.253c0,28.341-22.974,51.315-51.316,51.315h34.002
	C161.11,504.5,184.085,481.525,184.085,453.185z"/>
<circle style="fill:#EAE4D6;" cx="132.757" cy="231.602" r="31.766"/>
<path style="fill:#E2D9C7;" d="M132.752,231.607c-5.878-10.18-5.471-22.259,0.002-31.762c-5.399-0.005-10.873,1.358-15.885,4.252
	c-15.194,8.771-20.399,28.199-11.628,43.393c8.771,15.194,28.199,20.399,43.393,11.627c5.012-2.894,8.929-6.952,11.625-11.631
	C149.293,247.475,138.63,241.787,132.752,231.607z"/>
<circle style="fill:#EAE4D6;" cx="132.757" cy="342.147" r="31.766"/>
<path style="fill:#E2D9C7;" d="M132.752,342.143c-5.878-10.18-5.471-22.259,0.002-31.762c-5.399-0.005-10.873,1.358-15.885,4.252
	c-15.194,8.771-20.399,28.199-11.628,43.393c8.771,15.194,28.199,20.399,43.393,11.627c5.012-2.894,8.929-6.952,11.625-11.631
	C149.293,358.011,138.63,352.325,132.752,342.143z"/>
<path d="M165.093,224.106c-4.143,0-7.5,3.357-7.5,7.5c0,13.381-10.886,24.266-24.266,24.266c-13.38,0-24.265-10.886-24.265-24.266
	s10.886-24.266,24.265-24.266c4.143,0,7.5-3.357,7.5-7.5s-3.357-7.5-7.5-7.5c-21.651,0-39.266,17.615-39.266,39.267
	c0,21.651,17.614,39.267,39.266,39.267s39.267-17.615,39.267-39.267C172.593,227.464,169.236,224.106,165.093,224.106z"/>
<path d="M127.22,222.141c-2.712-3.135-7.448-3.477-10.58-0.767c-3.133,2.71-3.476,7.446-0.767,10.58
	c9.844,10.407,11.136,15.442,16.786,15.442c0.101-0.023,3.309,0.155,5.687-2.609l25.941-30.16c2.7-3.141,2.345-7.876-0.796-10.578
	c-3.14-2.699-7.875-2.346-10.578,0.796l-20.271,23.567L127.22,222.141z"/>
<path d="M133.326,302.877c-21.651,0-39.266,17.614-39.266,39.266c0,21.651,17.614,39.267,39.266,39.267s39.267-17.615,39.267-39.267
	c0-4.143-3.357-7.5-7.5-7.5s-7.5,3.357-7.5,7.5c0,13.381-10.886,24.266-24.266,24.266c-13.38,0-24.265-10.886-24.265-24.266
	c0-13.38,10.886-24.265,24.265-24.265c4.143,0,7.5-3.357,7.5-7.5C140.827,306.235,137.469,302.877,133.326,302.877z"/>
<path d="M127.22,332.678c-2.709-3.133-7.445-3.476-10.58-0.767c-3.133,2.71-3.476,7.446-0.767,10.58l11.113,12.85
	c2.413,2.79,5.783,2.616,5.683,2.594c2.182-0.003,4.254-0.955,5.677-2.609l25.941-30.16c2.7-3.141,2.345-7.876-0.796-10.578
	c-3.14-2.7-7.875-2.346-10.578,0.796l-20.271,23.567L127.22,332.678z"/>
<path d="M355.757,239.627H199.361c-4.143,0-7.5,3.357-7.5,7.5c0,4.143,3.357,7.5,7.5,7.5h156.398c4.143,0,7.5-3.357,7.5-7.5
	C363.258,242.985,359.9,239.627,355.757,239.627z"/>
<path d="M355.757,208.585H199.361c-4.143,0-7.5,3.357-7.5,7.5s3.357,7.5,7.5,7.5h156.398c4.143,0,7.5-3.357,7.5-7.5
	C363.258,211.943,359.9,208.585,355.757,208.585z"/>
<path d="M355.757,350.165H199.361c-4.143,0-7.5,3.357-7.5,7.5c0,4.143,3.357,7.5,7.5,7.5h156.398c4.143,0,7.5-3.357,7.5-7.5
	C363.258,353.523,359.9,350.165,355.757,350.165z"/>
<path d="M355.757,319.121H199.361c-4.143,0-7.5,3.357-7.5,7.5c0,4.143,3.357,7.5,7.5,7.5h156.398c4.143,0,7.5-3.357,7.5-7.5
	C363.259,322.478,359.9,319.121,355.757,319.121z"/>
<path d="M463.067,416.521c-6.042,0.737-7.891,3.794-27.153,15.978c-1.482,0.977-3.397,0.977-4.878,0l-10.876-7.171V227.237
	c0-4.142-3.357-7.5-7.5-7.5c-4.143,0-7.5,3.358-7.5,7.5v189.494c-4.113-0.849-8.04,0.176-11.102,2.19
	c-22.968,15.131-20.744,14.015-22.846,14.313c-2.768,0.413-2.34-0.691-23.645-14.314c-5.298-3.492-11.603-3.155-16.386,0.003
	c-22.511,14.231-21.397,16.204-26.427,13.186c-15.463-9.243-21-15.997-28.466-15.686c-7.188,0.24-9.586,4.302-28.489,16.075
	c-1.301,0.857-3.556,1.155-5.171,0.091c-19.205-11.952-21.485-15.971-28.717-16.171c-7.432-0.212-11.581,5.443-29.124,16.171
	c-3.469,2.292-5.479-0.566-25.763-13.666c-7.452-4.914-15.866-2.275-15.866,5.008c-0.02,31.073,0.044,29.504-0.057,31.492
	c-1.098,21.657-18.228,39.798-40.511,41.444c-25.793,1.892-47.062-19.141-47.062-44.526v-77.174c0-4.143-3.357-7.5-7.5-7.5
	c-4.142,0-7.5,3.357-7.5,7.5v77.174c0,32.586,26.351,59.66,58.816,59.66h256.416c4.143,0,7.5-3.357,7.5-7.5
	c0-4.143-3.357-7.5-7.5-7.5H138.539c23.591-21.127,19.199-48.145,19.619-60.679c12.21,7.976,12.122,8.157,14.414,9.301
	c7.604,3.8,14.569,3.384,20.474-0.51l20.66-13.625l20.665,13.626c7.009,4.621,15.719,3.84,21.684-0.09l20.486-13.509
	c18.19,11.266,21.614,16.029,29.764,16.658c4.366,0.429,8.771-0.659,12.413-3.062l20.659-13.624
	c21.222,13.875,20.928,14.079,23.722,15.266c3.148,1.339,6.648,1.829,10.145,1.344c7.879-0.903,10.415-5.108,29.007-16.609
	l20.527,13.535c6.496,4.283,14.895,4.283,21.393,0l12.304-8.112v16.274c0,24.16-19.655,43.815-43.815,43.815h-21.9
	c-4.143,0-7.5,3.357-7.5,7.5c0,4.143,3.357,7.5,7.5,7.5h21.9c32.432,0,58.816-26.385,58.816-58.816v-29.217
	C471.475,419.478,467.555,415.983,463.067,416.521z"/>
<path d="M48.026,347.664c4.143,0,7.5-3.357,7.5-7.5V109.655c0-9.022,7.341-16.364,16.364-16.364h86.691l14.417,14.416l-0.904,0.903
	c-8.268,8.269-8.268,21.722,0,29.99c5.435,5.267,5.953,6.354,8.413,7.794c3.497,2.044,7.473,2.252,10.922,1.04
	c5-1.757,5.25-4.013,30.33-28.508l17.964,17.965c1.465,1.465,3.384,2.197,5.304,2.197c1.919,0,3.839-0.732,5.303-2.196
	c2.93-2.929,2.93-7.678,0.001-10.607l-17.965-17.966l15.028-15.028h141.432c9.006,0,16.333,7.326,16.333,16.333v82.61
	c0,4.143,3.357,7.5,7.5,7.5c4.143,0,7.5-3.357,7.5-7.5v-82.61c0-17.277-14.057-31.334-31.334-31.334H260.992
	c1.798-4.478,0.887-9.798-2.735-13.422l-6.215-6.215c-8.271-8.268-21.722-8.267-29.99,0l-0.903,0.904L191.49,29.899
	c3.505-7.803,2.081-17.3-4.318-23.699c-8.268-8.267-21.721-8.265-29.989,0l-37.542,37.543c-10.567,10.57-7.167,28.713,6.786,34.548
	H71.891c-17.295,0-31.365,14.07-31.365,31.365v230.509C40.526,344.307,43.884,347.664,48.026,347.664z M142.844,78.29
	c0.17-0.071,0.332-0.16,0.5-0.236l0.236,0.236H142.844z M215.843,75.469c2.929,2.927,7.678,2.928,10.608,0l6.207-6.207
	c2.417-2.419,6.355-2.421,8.774,0l4.388,4.388c-2.285,2.285-58.08,58.079-58.732,58.731l-4.387-4.387
	c-2.42-2.419-2.42-6.355,0-8.774c5.619-5.635,8.892-7.663,8.348-12.379c-0.433-3.726,0.966-1.334-36.117-38.41l26.936-26.936
	L215.843,75.469z M130.248,54.351c38.781-37.836,37.258-39.357,41.93-39.357c5.483,0,8.306,6.671,4.387,10.59l-37.542,37.543
	c-2.419,2.421-6.357,2.419-8.774,0C127.828,60.706,127.828,56.77,130.248,54.351z"/>
<g>
</g>
<g>
</g>
<g>
</g>
<g>
</g>
<g>
</g>
<g>
</g>
<g>
</g>
<g>
</g>
<g>
</g>
<g>
</g>
<g>
</g>
<g>
</g>
<g>
</g>
<g>
</g>
<g>
</g>
</svg>
